<?xml version="1.0" encoding="UTF-8"?>
<svg id="uuid-825511a7-6021-4288-9da4-938b29dc54f6" data-name="Layer 1" xmlns="http://www.w3.org/2000/svg" viewBox="0 0 228 228">
  <defs>
    <style>
      .uuid-9f1d7632-4621-431f-b9ab-9e434a8df794 {
        fill: #bdbfc1;
      }

      .uuid-9f1d7632-4621-431f-b9ab-9e434a8df794, .uuid-e4ca049c-0aac-46c3-b0b6-d9ac42f00008, .uuid-76ece5cc-6498-4776-ab46-de0ec60f535c, .uuid-b27b81ff-595a-4fa4-9485-89804a0ca48e {
        stroke-width: 0px;
      }

      .uuid-e4ca049c-0aac-46c3-b0b6-d9ac42f00008, .uuid-76ece5cc-6498-4776-ab46-de0ec60f535c {
        fill: #fff;
      }

      .uuid-76ece5cc-6498-4776-ab46-de0ec60f535c {
        fill-rule: evenodd;
      }

      .uuid-b27b81ff-595a-4fa4-9485-89804a0ca48e {
        fill: #45413f;
      }
    </style>
  </defs>
  <polygon class="uuid-76ece5cc-6498-4776-ab46-de0ec60f535c" points="0 0 228 0 228 228 0 228 0 0 0 0"/>
  <path class="uuid-b27b81ff-595a-4fa4-9485-89804a0ca48e" d="m68.8,137.88c-10.72-3.06-23.54-10.96-24.51-22.4-.48-5.71,1.71-10.74,3.21-12.76.77-1.03,1.42-1.78,1.97-2.32-.31-3.22-.39-13.08,9.07-19.64,5.32-3.69,9.43-4.37,13.44-5.03,3.82-.63,7.56-1.24,12.31-5.08,11.34-9.16,31.47-17.08,45.92-11.87,11.39,4.11,13.94,10.63,14.47,13.99,4.42.57,15.65,2.9,24.66,12.24,9.5,9.86,8.58,20.47,7.88,24.18,8.06,7.16,7.89,12.98,3.87,17.81-3.97,4.77-12.77,8.29-19.73,10.99,1.25,9.9.96,23.07.77,27.7l-.2,4.84-3.42-3.43s-7.25-7.57-38.63-9.99c-31.36-2.42-47.83,10.87-47.88,10.91l-3.63,2.87.2-4.62c.53-12.27-.24-21.44.23-28.38h0Z"/>
  <path class="uuid-e4ca049c-0aac-46c3-b0b6-d9ac42f00008" d="m136.37,100.08c-2.42,3.93-5.17,11.79-5.26,17.37.38.06.75.13,1.13.19,5.9,1.03,11.16,2.45,15.41,3.96,2.36-2.9,6.38-6.91,8.33-7.38,0,0-4.43,5.72-5.18,7.51-.19.45-.31.73-.39.92,3.47,1.41,6.02,2.84,7.37,4.06,1.28,1.16,2.22,3.72,2.89,7.02,5.73-2.22,13.94-5.57,17.16-9.43,2.61-3.13,2.3-7.2-4.32-12.71-.62-.51-9.18,1.66-11.17,1.4,15.63-3.23,13.08-15.55,3.95-25.03-8.99-9.33-20.36-10.85-23.08-11.09-.51,6.58-3.04,11.01-7.61,15.84,7.39-8.53,7.19-24.9-6.81-29.94-14.31-5.16-48.18,3.13-43.08,25.26-3.21-6.13-6.11-9.24-13.04-8.1-3.55.58-7.18,1.18-11.72,4.33-5.8,4.02-10.91,15.55-4.52,20.86,2.7,2.24,4.48,2.7,4.48,2.7,0,0-5.81.17-8.79-2.49-3-2.67-3.73,8.02-3.58,9.82.8,9.4,11.91,15.69,20.84,18.28,1.17-5.86,4.13-9.75,11.31-12.52-2.31-5.14-3.26-15.73-3.36-19.07.2,3.56,4.16,13.61,7.82,17.64,3.68-.99,8.17-1.8,13.65-2.51-1.39-7.38,1.59-25.85,1.58-23.59-.07,9.31-.58,17.84,3.48,23.02,7.89-.71,15.58-.44,22.57.4,1.76-5.98,4.99-13.79,9.95-16.7h0Z"/>
  <path class="uuid-e4ca049c-0aac-46c3-b0b6-d9ac42f00008" d="m72.98,162.3c6.74-3.97,22.81-11.31,47.21-9.43,21.84,1.69,32.86,6.06,37.82,8.83.21-8.56.32-28.78-3.07-31.84-12.64-11.39-74.06-13.57-80.4.76-.47,1.06-1.39,27.85-1.56,31.69h0Z"/>
  <path class="uuid-9f1d7632-4621-431f-b9ab-9e434a8df794" d="m72.98,162.3c2.48-1.46,6.22-3.38,11.17-5.12-.41-6.12-1.21-23.34,1.9-33.82-5.84,1.64-10.08,4.03-11.51,7.26-.47,1.06-1.39,27.85-1.56,31.69h0Zm102.79-48.65c-.65-.67-1.4-1.36-2.26-2.07-.62-.51-9.18,1.66-11.17,1.4,0,0,3.23,1.1,7.14,1.12,2.48.01,4.88-.25,6.3-.45h0Zm-28.26-36.1c-1.99-.45-3.52-.63-4.31-.7-.5,6.48-2.96,10.87-7.4,15.61-.14.15-.22.23-.22.23,6-2.5,10.78-8.72,11.92-15.15h0Zm-86.61,30.24s-5.81.17-8.79-2.49c-3-2.67-3.73,8.02-3.58,9.82.8,9.4,11.91,15.69,20.84,18.28.29-1.43.68-2.74,1.21-3.94-4.6-2.65-15.38-9.36-16.09-13.95-.9-5.79,6.41-7.72,6.41-7.72h0Zm16.59,14.54c.96-.51,2.01-.99,3.18-1.44-2.31-5.14-3.25-15.71-3.36-19.06h0s0,.03,0,.03v.02s0,.03,0,.03v.03s0,.08,0,.08l.16,20.31h0Zm-.17-20.51h0s0,0,0,0h0Zm0,0h0c-.64,7.32-.69,13.46.17,20.51l-.17-20.51h0Zm0,0h0s0,0,0,0h0Zm16.92,15.78c1.44-.23,2.96-.44,4.56-.65-1.17-6.22.76-20.3,1.39-23.24-2.38,4.63-6.24,17.65-5.95,23.89h0Zm26.88-1.34c1.81.13,3.58.31,5.31.52,1.76-5.98,4.99-13.79,9.95-16.7-6.23,2.48-12.62,9.52-15.26,16.18h0Zm25.62,40.98c5.37,1.54,8.98,3.17,11.28,4.45.21-8.56.32-28.78-3.07-31.84-2.09-1.89-5.53-3.52-9.83-4.87,2.68,10.28,2.03,25.99,1.62,32.26h0Z"/>
</svg>